Simulation
nRows=40
nColumns=15
endheader
time  TH_x TH_y TH_z SC_y  SC_z  SC_x  AC_y  AC_z  AC_x  GH_y  GH_z  GH_yy  EL_x  PS_y
0.0  0.000000  0.000000  0.000000  -21.481837363305974  5.049547332879065  0.3347068766571287  50.326796664871644  7.384311604463073  -0.7031871319514813  143.6792808713789  2.5220795483781777  -99.3925389501171  20.939747132382166  120.000000
0.05362  0.000000  0.000000  0.000000  -21.057343514524923  5.310480468578014  -0.5051307360405577  50.015918834898855  7.51271137340346  -0.14570711908209524  69.76078911119359  0.8746367795610505  -26.47925861239142  20.26184452727445  120.000000
0.10724  0.000000  0.000000  0.000000  -20.761546931609413  5.556343386434748  -1.283505223537649  49.700125173691575  7.536021826433895  0.37474000449957057  5.48524459172496  2.582157799525297  36.67972365892431  19.581555613949327  120.000000
0.16086  0.000000  0.000000  0.000000  -20.690927900898046  5.820479153207679  -2.001611044735663  49.38047649062669  7.507228127965416  0.841000953855046  -2.249213484466834  4.76728422241208  43.066876678741984  18.87200573925255  120.000000
0.21448  0.000000  0.000000  0.000000  -20.909526672428374  6.132545685439591  -2.6359491722277517  49.05365541052386  7.496685395187723  1.2563417108911146  -4.114650005491795  6.9138658857554995  43.273499967534164  18.12009257349707  120.000000
0.2681  0.000000  0.000000  0.000000  -21.431544308566984  6.508760164728919  -3.1399916504923655  48.72713266202436  7.57706904926879  1.6323569417654724  -4.64244526399149  9.034938070037906  41.806807919795915  17.323571248354426  120.000000
0.32172  0.000000  0.000000  0.000000  -22.241230096300466  6.9627507733604705  -3.464981793972845  48.41697898118961  7.795158449184543  1.9815946078703002  -4.896546951630651  11.178586670355836  39.7519422201046  16.494633678533155  120.000000
0.37534  0.000000  0.000000  0.000000  -23.303743391059818  7.49658792849965  -3.5740200210027573  48.13797184724514  8.159616094421878  2.3111042498134906  -5.2838213753479835  13.395654416128545  37.568777812864795  15.651793674016277  120.000000
0.42896  0.000000  0.000000  0.000000  -24.578129538589657  8.103825429457597  -3.445646111956432  47.8977909288839  8.640263297186497  2.6230144190665836  -5.958712724828428  15.72940166381746  35.48353513548626  14.818723789147835  120.000000
0.48258  0.000000  0.000000  0.000000  -26.01328789898253  8.76711129119978  -3.076259098455353  47.702859001894176  9.182363898768804  2.9143089567178393  -6.944903052563331  18.211554776590333  33.60502665938733  14.018547329499524  120.000000
0.5362  0.000000  0.000000  0.000000  -27.55360992604099  9.463366130950504  -2.4801924849261274  47.55991560593736  9.723630658630098  3.1822298413492107  -8.170050190569503  20.859496790372503  31.948994555017805  13.270842263222283  120.000000
0.58982  0.000000  0.000000  0.000000  -29.13893140983184  10.165453769094212  -1.6883003764119338  47.47895265883838  10.210559605163096  3.4255610607825906  -9.513105137128873  23.67521623247576  30.476673355109835  12.587932310723831  120.000000
0.64344  0.000000  0.000000  0.000000  -30.71298962028835  10.848819359240178  -0.7427824618878297  47.47063428492573  10.605730173891681  3.64525491355761  -10.835060905782926  26.64410400981661  29.113509313803817  11.975752599212404  120.000000
0.69706  0.000000  0.000000  0.000000  -32.22755178068818  11.491910133819466  0.30895738442129067  47.542609767926514  10.89220397548837  3.844558430240345  -12.014363783511532  29.73591870167287  27.776266737164157  11.430805007411927  120.000000
0.75068  0.000000  0.000000  0.000000  -33.64850104309779  12.080610354689147  1.422162389630781  47.69727414848499  11.072558535388223  4.027963033030068  -12.958757693856212  32.90702036100999  26.37993631921726  10.938652720996476  120.000000
0.8043  0.000000  0.000000  0.000000  -34.95509473188939  12.606046017583775  2.562481600405801  47.93034564517249  11.165446189054459  4.200690434911477  -13.61512608752705  36.10786651972663  24.852581330311267  10.473282042431807  120.000000
0.85792  0.000000  0.000000  0.000000  -36.13810287968217  13.064934832819944  3.7069624284107796  48.231221246282075  11.198726959618673  4.367414807611186  -13.969585440304064  39.28851894080793  23.14725747623739  10.004316109929347  120.000000
0.91154  0.000000  0.000000  0.000000  -37.195115341110984  13.456851882204116  4.840168496151292  48.5829572158779  11.201906161068775  4.531612774126683  -14.046684950650874  42.40480981046623  21.256916334228162  9.508086238946134  120.000000
0.96516  0.000000  0.000000  0.000000  -38.12801792698975  13.785338222584533  5.945600316013952  48.9619735465076  11.201225818361015  4.6956417083809106  -13.902190222451209  45.42035731545858  19.21990190465871  8.980460993945169  120.000000
1.01878  0.000000  0.000000  0.000000  -38.939973708454495  14.056785598096129  7.008298626065048  49.34013669787042  11.212228398607213  4.855992559655617  -13.612986422436133  48.30587922773797  17.116585735724716  8.440465514514871  120.000000
1.0724  0.000000  0.000000  0.000000  -39.63402008125293  14.278973468695618  8.011399728728279  49.68834039424189  11.239289538857234  5.003458972316078  -13.263765466279304  51.03079885271421  15.053152415911377  7.923039451857766  120.000000
1.12602  0.000000  0.000000  0.000000  -40.211802685943695  14.457023215711317  8.932883095219672  49.98285665781562  11.277477500576977  5.126334590692132  -12.931868518288661  53.55638543642408  13.139932123832933  7.466999167173797  120.000000
1.17964  0.000000  0.000000  0.000000  -40.6778521145855  14.594712566358604  9.746400587639254  50.20939832530121  11.316869486800734  5.216205124668275  -12.673941964966165  55.83755212385362  11.469739419657193  7.104786062432244  120.000000
1.23326  0.000000  0.000000  0.000000  -41.04433932933151  14.696992676603957  10.42567000582197  50.36711428649656  11.345486754314772  5.269481273874645  -12.519285125438719  57.83396824806741  10.106504803695866  6.857975389957415  120.000000
1.28688  0.000000  0.000000  0.000000  -41.329481099884525  14.77119520185874  10.954153224919112  50.46747812807826  11.349388141347593  5.286493400247399  -12.471111548522156  59.51841238184551  9.081923189494656  6.737678231108899  120.000000
1.3405  0.000000  0.000000  0.000000  -41.55214870335512  14.826543991210858  11.329455693141304  50.52766073357342  11.315726211522286  5.270703812173201  -12.51457432829666  60.88119757341988  8.397184161149953  6.743116089790127  120.000000
1.39412  0.000000  0.000000  0.000000  -41.728830782712706  14.871402346166866  11.564680878849197  50.56051975962575  11.240928474392879  5.230831526654651  -12.62718590796158  61.92974518699748  8.024705309079303  6.8551890507347535  120.000000
1.44774  0.000000  0.000000  0.000000  -41.87201455796185  14.913044616207367  11.688497125447213  50.572361773494315  11.13673918877986  5.178655991255074  -12.785968606514134  62.68647061017252  7.911673153247433  7.031053103079351  120.000000
1.50136  0.000000  0.000000  0.000000  -41.991053376214566  14.956752750598087  11.74234801679604  50.563682453599355  11.026858580795613  5.126746183372894  -12.96861335785836  63.18515938649412  7.989101121300183  7.211309867951682  120.000000
1.55498  0.000000  0.000000  0.000000  -42.091398212410645  15.005672531435254  11.771171481889894  50.53220354698913  10.937509043424642  5.085209993997006  -13.152518868118795  63.46163379123411  8.186429508300558  7.336455149481248  120.000000
1.6086  0.000000  0.000000  0.000000  -42.17487647180659  15.06138186030966  11.812140988227391  50.47662499116663  10.885848170591983  5.057750246060493  -13.312591837317957  63.54335902504485  8.445375052932846  7.367962227908865  120.000000
1.66222  0.000000  0.000000  0.000000  -42.23818249606052  15.123359309537737  11.886961606807658  50.39819872685369  10.87316378471417  5.04142786004978  -13.420978211315933  63.438522959525784  8.72793723075588  7.301540774516066  120.000000
1.71584  0.000000  0.000000  0.000000  -42.271770951135856  15.18800940413329  12.000026046876034  50.30237377143651  10.885605553807574  5.027288972646176  -13.448798662566997  63.12728903348395  9.013270319827571  7.166125927115772  120.000000
1.76946  0.000000  0.000000  0.000000  -42.259012863872485  15.24788354776387  12.141162824231843  50.19945438388084  10.900197106468907  5.00214516384351  -13.370309214815107  62.55668930269568  9.287058107242794  7.011195377817814  120.000000
1.82308  0.000000  0.000000  0.000000  -42.17928758092086  15.290968453651145  12.29093723739587  50.10340642115825  10.891269980666241  4.950464132944798  -13.167576616644151  61.64023232076075  9.529836049885187  6.8959048073277325  120.000000
1.8767  0.000000  0.000000  0.000000  -42.01315053997796  15.302430231702138  12.421906103659682  50.029524246641586  10.834005823819874  4.854058377875246  -12.834256978930327  60.265073021689645  9.71272171940054  6.882208179173148  120.000000
1.93032  0.000000  0.000000  0.000000  -41.74679815261154  15.265837527795064  12.49942352399642  49.98791754000383  10.706364036047006  4.695173452768912  -12.373731968174193  58.310150892467135  9.80332516578692  7.029673070355216  120.000000
1.98394  0.000000  0.000000  0.000000  -41.37029360237214  15.167870713781856  12.47826467793889  49.97726240388273  10.493533911505304  4.460358417935267  -11.790236627381086  55.676279039095455  9.782917493415699  7.3842689336709055  120.000000
2.03756  0.000000  0.000000  0.000000  -40.87107363648417  15.001045552543399  12.30751033667466  49.980474932302506  10.19009255755943  4.143824356404485  -11.078038890613575  52.31971560617598  9.668959068600492  7.956912670559718  120.000000
2.09118  0.000000  0.000000  0.000000  -40.22773143047335  14.762814048814509  11.939372541970794  49.96642746371993  9.798110368111736  3.746185998860756  -10.219869371803023  48.27713106683601  9.537132767077425  8.698529393656983  120.000000
